<mxfile host="app.diagrams.net" modified="2023-08-23T08:56:46.677Z" agent="Mozilla/5.0 (Windows NT 10.0; Win64; x64) AppleWebKit/537.36 (KHTML, like Gecko) Chrome/115.0.0.0 Safari/537.36 Edg/115.0.1901.203" etag="jzdkCN-lFNq_lnhyND6U" version="21.6.8" type="github">
  <diagram name="第 1 页" id="vHNizKL9Y82_c_2R3YAB">
    <mxGraphModel dx="475" dy="253" grid="1" gridSize="10" guides="1" tooltips="1" connect="1" arrows="1" fold="1" page="1" pageScale="1" pageWidth="827" pageHeight="1169" math="0" shadow="0">
      <root>
        <mxCell id="0" />
        <mxCell id="1" parent="0" />
        <mxCell id="wkE--7n2eSdFaFKRiEd0-1" value="BMU主控" style="rounded=0;whiteSpace=wrap;html=1;" vertex="1" parent="1">
          <mxGeometry x="120" y="200" width="260" height="130" as="geometry" />
        </mxCell>
        <mxCell id="wkE--7n2eSdFaFKRiEd0-2" value="采集板接口1" style="rounded=0;whiteSpace=wrap;html=1;verticalAlign=middle;horizontal=0;align=center;fontFamily=Helvetica;" vertex="1" parent="1">
          <mxGeometry x="120" y="220" width="30" height="90" as="geometry" />
        </mxCell>
        <mxCell id="wkE--7n2eSdFaFKRiEd0-3" value="采集板接口2" style="rounded=0;whiteSpace=wrap;html=1;" vertex="1" parent="1">
          <mxGeometry x="160" y="200" width="140" height="20" as="geometry" />
        </mxCell>
        <mxCell id="wkE--7n2eSdFaFKRiEd0-38" value="" style="group" vertex="1" connectable="0" parent="1">
          <mxGeometry x="240" y="290" width="80" height="40" as="geometry" />
        </mxCell>
        <mxCell id="wkE--7n2eSdFaFKRiEd0-15" value="&lt;p style=&quot;line-height: 100%;&quot;&gt;&lt;font style=&quot;font-size: 11px;&quot;&gt;1&lt;/font&gt;&lt;/p&gt;" style="rounded=0;whiteSpace=wrap;html=1;fontSize=8;" vertex="1" parent="wkE--7n2eSdFaFKRiEd0-38">
          <mxGeometry width="20" height="10" as="geometry" />
        </mxCell>
        <mxCell id="wkE--7n2eSdFaFKRiEd0-16" value="&lt;p style=&quot;line-height: 100%;&quot;&gt;&lt;span style=&quot;font-size: 11px;&quot;&gt;485_2&lt;/span&gt;&lt;/p&gt;" style="rounded=0;whiteSpace=wrap;html=1;fontSize=8;horizontal=1;" vertex="1" parent="wkE--7n2eSdFaFKRiEd0-38">
          <mxGeometry y="10" width="40" height="20" as="geometry" />
        </mxCell>
        <mxCell id="wkE--7n2eSdFaFKRiEd0-25" value="&lt;p style=&quot;line-height: 100%;&quot;&gt;&lt;font style=&quot;font-size: 11px;&quot;&gt;2&lt;/font&gt;&lt;/p&gt;" style="rounded=0;whiteSpace=wrap;html=1;fontSize=8;" vertex="1" parent="wkE--7n2eSdFaFKRiEd0-38">
          <mxGeometry x="20" width="20" height="10" as="geometry" />
        </mxCell>
        <mxCell id="wkE--7n2eSdFaFKRiEd0-26" value="&lt;p style=&quot;line-height: 100%;&quot;&gt;&lt;font style=&quot;font-size: 11px;&quot;&gt;A&lt;/font&gt;&lt;/p&gt;" style="rounded=0;whiteSpace=wrap;html=1;fontSize=8;" vertex="1" parent="wkE--7n2eSdFaFKRiEd0-38">
          <mxGeometry y="30" width="20" height="10" as="geometry" />
        </mxCell>
        <mxCell id="wkE--7n2eSdFaFKRiEd0-27" value="&lt;p style=&quot;line-height: 100%;&quot;&gt;&lt;font style=&quot;font-size: 11px;&quot;&gt;B&lt;/font&gt;&lt;/p&gt;" style="rounded=0;whiteSpace=wrap;html=1;fontSize=8;" vertex="1" parent="wkE--7n2eSdFaFKRiEd0-38">
          <mxGeometry x="20" y="30" width="20" height="10" as="geometry" />
        </mxCell>
        <mxCell id="wkE--7n2eSdFaFKRiEd0-33" value="&lt;p style=&quot;line-height: 100%;&quot;&gt;&lt;font style=&quot;font-size: 11px;&quot;&gt;3&lt;/font&gt;&lt;/p&gt;" style="rounded=0;whiteSpace=wrap;html=1;fontSize=8;" vertex="1" parent="wkE--7n2eSdFaFKRiEd0-38">
          <mxGeometry x="40" width="20" height="10" as="geometry" />
        </mxCell>
        <mxCell id="wkE--7n2eSdFaFKRiEd0-34" value="电源" style="rounded=0;whiteSpace=wrap;fontSize=11;horizontal=1;html=1;fillStyle=auto;gradientColor=none;" vertex="1" parent="wkE--7n2eSdFaFKRiEd0-38">
          <mxGeometry x="40" y="10" width="40" height="20" as="geometry" />
        </mxCell>
        <mxCell id="wkE--7n2eSdFaFKRiEd0-35" value="&lt;p style=&quot;line-height: 100%;&quot;&gt;&lt;font style=&quot;font-size: 11px;&quot;&gt;4&lt;/font&gt;&lt;/p&gt;" style="rounded=0;whiteSpace=wrap;html=1;fontSize=8;" vertex="1" parent="wkE--7n2eSdFaFKRiEd0-38">
          <mxGeometry x="60" width="20" height="10" as="geometry" />
        </mxCell>
        <mxCell id="wkE--7n2eSdFaFKRiEd0-36" value="&lt;p style=&quot;line-height: 100%;&quot;&gt;&lt;font style=&quot;font-size: 11px;&quot;&gt;A&lt;/font&gt;&lt;/p&gt;" style="rounded=0;whiteSpace=wrap;html=1;fontSize=8;" vertex="1" parent="wkE--7n2eSdFaFKRiEd0-38">
          <mxGeometry x="40" y="30" width="20" height="10" as="geometry" />
        </mxCell>
        <mxCell id="wkE--7n2eSdFaFKRiEd0-37" value="&lt;p style=&quot;line-height: 100%;&quot;&gt;&lt;font style=&quot;font-size: 11px;&quot;&gt;B&lt;/font&gt;&lt;/p&gt;" style="rounded=0;whiteSpace=wrap;html=1;fontSize=8;" vertex="1" parent="wkE--7n2eSdFaFKRiEd0-38">
          <mxGeometry x="60" y="30" width="20" height="10" as="geometry" />
        </mxCell>
        <mxCell id="wkE--7n2eSdFaFKRiEd0-39" value="" style="group" vertex="1" connectable="0" parent="1">
          <mxGeometry x="340" y="220" width="40" height="80" as="geometry" />
        </mxCell>
        <mxCell id="wkE--7n2eSdFaFKRiEd0-4" value="&lt;p style=&quot;line-height: 100%;&quot;&gt;&lt;font style=&quot;font-size: 11px;&quot;&gt;5&lt;/font&gt;&lt;/p&gt;" style="rounded=0;whiteSpace=wrap;html=1;fontSize=8;" vertex="1" parent="wkE--7n2eSdFaFKRiEd0-39">
          <mxGeometry y="60" width="10" height="20" as="geometry" />
        </mxCell>
        <mxCell id="wkE--7n2eSdFaFKRiEd0-6" value="&lt;p style=&quot;line-height: 100%;&quot;&gt;&lt;span style=&quot;font-size: 11px;&quot;&gt;CAN1&lt;/span&gt;&lt;/p&gt;" style="rounded=0;whiteSpace=wrap;html=1;fontSize=8;horizontal=0;" vertex="1" parent="wkE--7n2eSdFaFKRiEd0-39">
          <mxGeometry x="10" y="40" width="20" height="40" as="geometry" />
        </mxCell>
        <mxCell id="wkE--7n2eSdFaFKRiEd0-7" value="&lt;p style=&quot;line-height: 100%;&quot;&gt;&lt;font style=&quot;font-size: 11px;&quot;&gt;6&lt;/font&gt;&lt;/p&gt;" style="rounded=0;whiteSpace=wrap;html=1;fontSize=8;" vertex="1" parent="wkE--7n2eSdFaFKRiEd0-39">
          <mxGeometry y="40" width="10" height="20" as="geometry" />
        </mxCell>
        <mxCell id="wkE--7n2eSdFaFKRiEd0-8" value="&lt;p style=&quot;line-height: 100%;&quot;&gt;&lt;span style=&quot;font-size: 11px;&quot;&gt;H&lt;/span&gt;&lt;/p&gt;" style="rounded=0;whiteSpace=wrap;html=1;fontSize=8;" vertex="1" parent="wkE--7n2eSdFaFKRiEd0-39">
          <mxGeometry x="30" y="60" width="10" height="20" as="geometry" />
        </mxCell>
        <mxCell id="wkE--7n2eSdFaFKRiEd0-9" value="&lt;p style=&quot;line-height: 100%;&quot;&gt;&lt;span style=&quot;font-size: 11px;&quot;&gt;L&lt;/span&gt;&lt;/p&gt;" style="rounded=0;whiteSpace=wrap;html=1;fontSize=8;" vertex="1" parent="wkE--7n2eSdFaFKRiEd0-39">
          <mxGeometry x="30" y="40" width="10" height="20" as="geometry" />
        </mxCell>
        <mxCell id="wkE--7n2eSdFaFKRiEd0-10" value="&lt;p style=&quot;line-height: 100%;&quot;&gt;&lt;font style=&quot;font-size: 11px;&quot;&gt;7&lt;/font&gt;&lt;/p&gt;" style="rounded=0;whiteSpace=wrap;html=1;fontSize=8;" vertex="1" parent="wkE--7n2eSdFaFKRiEd0-39">
          <mxGeometry y="20" width="10" height="20" as="geometry" />
        </mxCell>
        <mxCell id="wkE--7n2eSdFaFKRiEd0-11" value="&lt;p style=&quot;line-height: 100%;&quot;&gt;&lt;span style=&quot;font-size: 11px;&quot;&gt;485_1&lt;/span&gt;&lt;/p&gt;" style="rounded=0;whiteSpace=wrap;html=1;fontSize=8;horizontal=0;" vertex="1" parent="wkE--7n2eSdFaFKRiEd0-39">
          <mxGeometry x="10" width="20" height="40" as="geometry" />
        </mxCell>
        <mxCell id="wkE--7n2eSdFaFKRiEd0-12" value="&lt;p style=&quot;line-height: 100%;&quot;&gt;&lt;font style=&quot;font-size: 11px;&quot;&gt;8&lt;/font&gt;&lt;/p&gt;" style="rounded=0;whiteSpace=wrap;html=1;fontSize=8;" vertex="1" parent="wkE--7n2eSdFaFKRiEd0-39">
          <mxGeometry width="10" height="20" as="geometry" />
        </mxCell>
        <mxCell id="wkE--7n2eSdFaFKRiEd0-13" value="&lt;p style=&quot;line-height: 100%;&quot;&gt;&lt;span style=&quot;font-size: 11px;&quot;&gt;A&lt;/span&gt;&lt;/p&gt;" style="rounded=0;whiteSpace=wrap;html=1;fontSize=8;" vertex="1" parent="wkE--7n2eSdFaFKRiEd0-39">
          <mxGeometry x="30" y="20" width="10" height="20" as="geometry" />
        </mxCell>
        <mxCell id="wkE--7n2eSdFaFKRiEd0-14" value="&lt;p style=&quot;line-height: 100%;&quot;&gt;&lt;span style=&quot;font-size: 11px;&quot;&gt;B&lt;/span&gt;&lt;/p&gt;" style="rounded=0;whiteSpace=wrap;html=1;fontSize=8;" vertex="1" parent="wkE--7n2eSdFaFKRiEd0-39">
          <mxGeometry x="30" width="10" height="20" as="geometry" />
        </mxCell>
        <mxCell id="wkE--7n2eSdFaFKRiEd0-40" value="CAN2&lt;br&gt;网口" style="rounded=0;whiteSpace=wrap;html=1;verticalAlign=middle;horizontal=1;align=center;fontFamily=Helvetica;" vertex="1" parent="1">
          <mxGeometry x="160" y="290" width="40" height="40" as="geometry" />
        </mxCell>
        <mxCell id="wkE--7n2eSdFaFKRiEd0-41" value="采集板接口接采集板，最多接2块，只用1块时连接接口1。&lt;br&gt;CAN2网口通过网线串联所有电压电流采集板。&lt;br&gt;485_2连接模块内部485通讯设备，变频器、冷水机等。&lt;br&gt;CAN1通讯为上行通讯连接外部网关、BAU、PCS，预留。&lt;br&gt;485_1上行接口，连接外部通讯网关。" style="text;strokeColor=none;align=center;fillColor=none;html=1;verticalAlign=middle;whiteSpace=wrap;rounded=0;" vertex="1" parent="1">
          <mxGeometry x="120" y="340" width="260" height="130" as="geometry" />
        </mxCell>
      </root>
    </mxGraphModel>
  </diagram>
</mxfile>
